# xmcd
#
# Track frame offsets:
#	151
#	29322
#	43759
#	57698
#	70743
#	99220
#	109601
#	123788
#
# Disc length: 2062 seconds
# Revision: 0
# Processed by: cddbd v1.5.2PL0 Copyright (c) Steve Scherf et al.
# Submitted via: dBpowerAMP V12.0
#
DISCID=64080c08
DTITLE=Ray Charles - Georgia on My Mind
DYEAR=2001
DGENRE=R&B
TTITLE0=What'd I Say
TTITLE1=Blues Is My Middle Name
TTITLE2=Late in the Evening Blues
TTITLE3=Heartbreaker
TTITLE4=I Got a Woman
TTITLE5=I'm Movin' On
TTITLE6=Kissa Me Baby
TTITLE7=Georgia on My Mind
EXTD=
EXTT0=
EXTT1=
EXTT2=
EXTT3=
EXTT4=
EXTT5=
EXTT6=
EXTT7=
PLAYORDER=
